<?xml version="1.0" encoding="UTF-8" standalone="no"?>
<svg
   xmlns:dc="http://purl.org/dc/elements/1.1/"
   xmlns:cc="http://creativecommons.org/ns#"
   xmlns:rdf="http://www.w3.org/1999/02/22-rdf-syntax-ns#"
   xmlns:svg="http://www.w3.org/2000/svg"
   xmlns="http://www.w3.org/2000/svg"
   xmlns:sodipodi="http://sodipodi.sourceforge.net/DTD/sodipodi-0.dtd"
   xmlns:inkscape="http://www.inkscape.org/namespaces/inkscape"
   version="1.1"
   id="svg2"
   viewBox="0 0 354.33073 354.3307"
   height="100mm"
   width="100mm"
   inkscape:version="0.91 r13725"
   sodipodi:docname="cup.svg">
  <sodipodi:namedview
     pagecolor="#ffffff"
     bordercolor="#666666"
     borderopacity="1"
     objecttolerance="10"
     gridtolerance="10"
     guidetolerance="10"
     inkscape:pageopacity="0"
     inkscape:pageshadow="2"
     inkscape:window-width="1436"
     inkscape:window-height="855"
     id="namedview23"
     showgrid="false"
     units="mm"
     fit-margin-top="0"
     fit-margin-left="0"
     fit-margin-right="0"
     fit-margin-bottom="0"
     inkscape:zoom="1.2334156"
     inkscape:cx="177.16534"
     inkscape:cy="100.54842"
     inkscape:window-x="4"
     inkscape:window-y="1"
     inkscape:window-maximized="1"
     inkscape:current-layer="svg2" />
  <defs
     id="defs4" />
  <metadata
     id="metadata7">
    <rdf:RDF>
      <cc:Work
         rdf:about="">
        <dc:format>image/svg+xml</dc:format>
        <dc:type
           rdf:resource="http://purl.org/dc/dcmitype/StillImage" />
        <dc:title></dc:title>
      </cc:Work>
    </rdf:RDF>
  </metadata>
  <g
     transform="matrix(1.8789709,0,0,1.8789709,-501.85867,-851.28613)"
     id="layer1">
    <g
       transform="translate(267.09231,453.05977)"
       id="g3468">
      <path
         d="m 188.577,86.409 c 0,-10.8 -2.922,-22.243 -24.589,-25.236 -0.636,-0.087 -1.263,-0.083 -1.872,-0.015 0.564,-7.447 0.438,-12.401 0.414,-13.126 -0.132,-4.045 -3.504,-7.256 -7.551,-7.256 l -147.478,0 c -2.508,0 -4.85,1.254 -6.24,3.34 -0.96,1.439 -1.379,3.144 -1.23,4.822 -0.165,7.133 -0.142,53.169 26.168,83.863 l -18.699,0 c -4.143,0 -7.5,3.357 -7.5,7.5 0,4.143 3.357,7.5 7.5,7.5 l 38.204,0 71.182,0 38.167,0 c 4.143,0 7.5,-3.357 7.5,-7.5 0,-4.143 -3.357,-7.5 -7.5,-7.5 l -18.785,0 c 1.535,-1.803 2.981,-3.659 4.343,-5.56 24.425,-2.532 47.966,-26.89 47.966,-40.832 z M 160.392,75.646 c 0.49,0.179 1.006,0.311 1.544,0.386 11.642,1.607 11.642,4.538 11.642,10.369 -0.13,4.143 -10.107,16.14 -22.59,22.308 4.927,-11.396 7.771,-23.047 9.404,-33.063 z M 48.076,132.801 c -28.083,-20.536 -32.43,-60.699 -33,-77.025 l 132.316,0 c -0.82,16.514 -5.665,56.998 -32.939,77.025 l -66.377,0 z"
         id="path3430"
         inkscape:connector-curvature="0" />
      <g
         id="g3432" />
      <g
         id="g3434" />
      <g
         id="g3436" />
      <g
         id="g3438" />
      <g
         id="g3440" />
      <g
         id="g3442" />
      <g
         id="g3444" />
      <g
         id="g3446" />
      <g
         id="g3448" />
      <g
         id="g3450" />
      <g
         id="g3452" />
      <g
         id="g3454" />
      <g
         id="g3456" />
      <g
         id="g3458" />
      <g
         id="g3460" />
    </g>
  </g>
</svg>
